<?xml version="1.0" encoding="utf-8"?>
<svg xmlns="http://www.w3.org/2000/svg" xmlns:xlink="http://www.w3.org/1999/xlink" version= "1.1" width="1080px" height="1080px" viewBox="0 592 1080 1080">
<g id="layer1" opacity="0.0">
<g style="fill:rgb(255,255,255); fill-opacity:1.0; stroke-linejoin: miter">
<path d="M1055.2557,1134.6807L1050.5288,1207.3323Q1016.92236,1426.8906,853.86426,1558.5286Q689.67786,1690.0598,467.1827,1665.1997Q254.84001,1630.4512,127.52896,1461.8516Q86.73709,1407.3529,60.328876,1343.085L38.133503,1277.013Q19.842491,1208.8174,19.636845,1134.6807Q25.189466,907.16675,171.29973,756.0911Q317.40994,605.01556,537.44635,599.27423Q757.48267,605.01556,903.5929,756.0911Q1049.7031,907.16675,1055.2557,1134.6807"/>
</g>
</g>
<g id="layer2">
<g style="fill:rgb(255,0,0); fill-opacity:1.0; stroke-linejoin: miter">
<path d="M151.2514,840.73224L171.4428,840.67993L191.6342,840.6276Q191.65405,848.22125,191.6739,855.81494Q171.48251,855.86816,151.2911,855.92145Q151.27126,848.32684,151.2514,840.73224"/>
</g>
<g style="fill:rgb(255,0,0); fill-opacity:1.0; stroke-linejoin: miter">
<path d="M150.68153,930.34485L186.10587,930.25275L221.53018,930.16064Q221.5491,937.39685,221.56801,944.63306Q186.14369,944.7262,150.71938,944.8193Q150.70045,937.58203,150.68153,930.34485"/>
</g>
<g style="fill:rgb(255,0,0); fill-opacity:1.0; stroke-linejoin: miter">
<path d="M163.13771,842.1306L172.608,842.1064L182.07831,842.08215Q182.19904,888.2718,182.31976,934.4614Q172.84947,934.48663,163.37918,934.5119Q163.25845,888.3213,163.13771,842.1306"/>
</g>
<g style="fill:rgb(255,0,0); fill-opacity:1.0; stroke-linejoin: miter">
<path d="M207.52002,895.35034L214.62411,895.3508L221.72823,895.35126Q221.72823,917.40466,221.72823,939.45807Q214.62411,939.4586,207.52002,939.4591Q207.52002,917.4047,207.52002,895.35034"/>
</g>
<g style="fill:rgb(255,0,0); fill-opacity:1.0; stroke-linejoin: miter">
<path d="M224.67163,841.37427L245.3058,841.31714L265.93997,841.2601Q265.95892,848.05054,265.97784,854.84106Q245.34367,854.8991,224.7095,854.95715Q224.69057,848.1657,224.67163,841.37427"/>
</g>
<g style="fill:rgb(255,0,0); fill-opacity:1.0; stroke-linejoin: miter">
<path d="M226.90529,930.4874L247.53944,930.43036L268.1736,930.3732Q268.19257,937.1637,268.2115,943.95416Q247.57735,944.01227,226.9432,944.0704Q226.92424,937.27893,226.90529,930.4874"/>
</g>
<g style="fill:rgb(255,0,0); fill-opacity:1.0; stroke-linejoin: miter">
<path d="M236.58134,851.50354L246.05165,851.4793L255.52196,851.4551Q255.64268,897.6446,255.76341,943.8341Q246.29312,943.8594,236.82281,943.88464Q236.70209,897.6941,236.58134,851.50354"/>
</g>
<g style="fill:rgb(255,0,0); fill-opacity:1.0; stroke-linejoin: miter">
<path d="M273.18735,930.3147L293.82153,930.2576L314.45572,930.20056Q314.47467,936.991,314.4936,943.78156Q293.8594,943.8396,273.22525,943.89764Q273.2063,937.10614,273.18735,930.3147"/>
</g>
<g style="fill:rgb(255,0,0); fill-opacity:1.0; stroke-linejoin: miter">
<path d="M271.1846,841.20074L291.81873,841.1436L312.45288,841.08655Q312.47183,847.877,312.49078,854.66754Q291.85663,854.7256,271.2225,854.7836Q271.20355,847.9922,271.1846,841.20074"/>
</g>
<g style="fill:rgb(255,0,0); fill-opacity:1.0; stroke-linejoin: miter">
<path d="M319.92834,927.6861L340.56253,927.629L361.1967,927.57196Q361.21564,934.3624,361.2346,941.15295Q340.6004,941.211,319.96625,941.26904Q319.9473,934.47754,319.92834,927.6861"/>
</g>
<g style="fill:rgb(255,0,0); fill-opacity:1.0; stroke-linejoin: miter">
<path d="M332.20148,844.2456L341.67178,844.2213L351.14206,844.197Q351.26282,890.38666,351.38354,936.5763Q341.91324,936.6015,332.44296,936.6267Q332.3222,890.43616,332.20148,844.2456"/>
</g>
<g style="fill:rgb(255,0,0); fill-opacity:1.0; stroke-linejoin: miter">
<path d="M321.07718,839.63885L341.71133,839.5818L362.3455,839.5247Q362.36444,846.3152,362.3834,853.1057Q341.74924,853.16376,321.11508,853.2218Q321.09613,846.4303,321.07718,839.63885"/>
</g>
<g style="fill:rgb(255,0,0); fill-opacity:1.0; stroke-linejoin: miter">
<path d="M94.94374,471.5568L94.943695,471.5573L94.94365,471.5578L94.943695,471.5573L94.94374,471.5568L94.943695,471.5573L94.94365,471.5578Q94.943695,471.5573,94.94374,471.5568"/>
</g>
<g style="fill:rgb(255,0,0); fill-opacity:1.0; stroke-linejoin: miter">
<path d="M287.83563,849.7755L258.90927,889.76514L286.54626,932.8869L309.6781,932.73486L279.4919,889.4368L309.6678,849.2731L287.83563,849.7755"/>
</g>
<g style="fill:rgb(255,0,0); fill-opacity:1.0; stroke-linejoin: miter">
<path d="M359.1292,839.5726L359.1292,839.5735Q368.97293,839.55505,373.7745,840.35803Q379.6601,841.1716,383.79547,844.11444Q392.90103,851.6958,393.10214,867.0331Q393.2516,869.5109,392.13474,875.7945Q391.02124,881.2938,388.5996,887.51025Q384.6119,896.7357,380.23117,900.06885Q375.34296,904.2444,367.56848,904.9331Q359.9412,905.68835,346.26944,904.0226L343.9936,889.37463Q362.36212,891.7268,367.4525,889.0329Q375.15985,885.6924,377.09113,875.16144Q378.24936,870.05634,377.4519,863.3881Q376.75497,859.2837,374.1667,856.8856Q371.54266,854.5017,366.65652,853.6498Q361.01825,852.6036,349.4857,852.7244L359.1292,839.5726"/>
</g>
<g style="fill:rgb(255,0,0); fill-opacity:1.0; stroke-linejoin: miter">
<path d="M148.6185,981.9793L154.77779,981.5163Q241.2685,974.29565,262.4391,983.1675Q277.53528,988.27734,286.17493,996.6037Q305.2998,1016.21643,309.7186,1026.5347Q318.42166,1045.657,313.95715,1065.5793Q309.85583,1084.4896,305.95117,1092.0316Q301.508,1102.2426,295.6641,1109.7535Q288.42847,1119.7466,273.23383,1126.1312Q251.13266,1133.2363,231.02802,1134.9209Q215.47832,1136.6416,148.68118,1135.405Q161.84427,1133.9055,167.67557,1130.7518Q172.46294,1129.0367,175.02745,1120.7194Q175.90173,1117.9637,176.05302,1109.9017L174.62216,1024.1284L211.66887,1024.0779L212.72647,1127.6909Q241.05212,1125.9727,248.22832,1121.2753Q260.08606,1116.174,266.83804,1101.9608Q268.33276,1100.0066,272.05212,1086.151Q274.58948,1074.544,274.63168,1062.2443Q274.46805,1037.176,265.36542,1020.0301Q256.2102,1003.0294,244.14993,996.01465Q231.10712,988.51465,211.67207,989.11053L211.72815,1041.8192L175.67343,1048.5238L173.74602,998.925Q173.59793,996.01105,172.73328,993.4666Q171.1694,985.302,148.6185,981.9793"/>
</g>
<g style="fill:rgb(255,0,0); fill-opacity:1.0; stroke-linejoin: miter">
<path d="M330.40967,980.34985L467.73987,976.8168L466.88596,1024.9661Q455.45087,999.1569,442.57217,993.73486Q428.67236,986.73566,393.44748,988.42773L393.2328,1052.4865Q414.0611,1052.6198,420.01865,1045.358Q426.77142,1039.4042,431.36346,1012.84L431.56192,1096.7528Q422.99127,1071.1399,416.3155,1065.6505Q410.27444,1058.908,392.7868,1059.8987L393.19965,1125.2329Q430.6496,1133.4049,447.2401,1126.1299Q461.77045,1120.8275,476.56235,1087.276L474.47125,1134.1656L329.00052,1132.7219Q344.725,1130.534,350.46524,1125.2119Q355.03543,1120.9796,354.6158,1108.666Q353.2404,1073.3827,353.17007,991.8147Q353.15475,988.56616,348.115,986.2339Q344.71185,984.3916,330.40967,980.34985"/>
</g>
<g style="fill:rgb(255,0,0); fill-opacity:1.0; stroke-linejoin: miter">
<path d="M645.9622,1078.58L645.58136,1134.8984Q654.6844,1126.876,660.57367,1127.2689Q662.5686,1127.1794,666.3897,1128.3284Q682.6358,1134.2858,684.34827,1134.3195Q691.03656,1135.9275,697.838,1136.3551Q715.51263,1137.4917,728.8541,1131.8882Q741.50494,1126.077,749.14984,1114.2297Q759.4793,1097.3132,759.94214,1083.8185Q760.3319,1076.4612,757.1374,1069.2979Q755.49536,1065.7336,752.68823,1062.3226L749.54504,1058.9675Q742.3344,1052.378,731.349,1046.5901Q728.3137,1044.5536,692.90845,1028.1311Q689.86145,1026.8683,680.7049,1021.0759Q668.13196,1012.9421,666.7671,1001.99Q666.31085,989.21704,678.81915,983.48016Q687.71075,979.3362,711.655,984.965Q729.9248,989.3419,733.7339,995.6929Q738.9099,1001.286,743.64355,1020.615L746.2181,972.91125Q741.4277,983.3021,734.455,983.2888Q730.21936,983.2791,726.5453,982.1511Q722.78485,981.3705,708.69635,975.5081Q700.2401,973.66626,697.25977,973.42096Q685.72705,971.8977,674.23663,976.3635Q646.6954,987.8744,640.8929,1012.8281Q639.9589,1021.61615,640.6998,1023.458Q641.21954,1027.0508,642.6343,1030.6249Q644.049,1034.1989,646.4632,1037.6779Q647.1422,1039.5134,655.8049,1047.7584Q663.39307,1054.2511,672.5816,1059.8762Q677.4715,1063.6272,716.9729,1083.5872Q724.0847,1087.4663,727.6002,1091.6056Q732.3627,1097.3195,730.95874,1104.615Q728.59906,1113.1724,723.78107,1117.969Q717.0389,1126.0012,704.17535,1126.7295Q692.36584,1126.0864,681.1403,1120.2241Q665.20044,1112.1078,656.73676,1102.0829Q650.0083,1094.922,645.9622,1078.58"/>
</g>
<g style="fill:rgb(255,0,0); fill-opacity:1.0; stroke-linejoin: miter">
<path d="M768.5018,976.41473L850.93304,975.58636Q838.0168,975.28925,834.36786,978.3238Q831.2084,981.8024,831.6482,983.47046Q831.4201,985.8016,832.32556,989.161Q834.48755,1001.2745,873.07605,1056.5883Q911.4458,998.842,913.1665,990.158Q915.0584,985.2489,912.28625,982.0714Q910.56104,979.4457,897.25214,974.8248L945.62506,975.33276Q930.4536,982.06647,927.62103,987.2624Q914.34155,1009.3644,877.97925,1063.0969L876.48285,1107.4606Q876.28955,1113.8385,877.99084,1117.9082Q879.7698,1121.9614,884.98254,1124.0103Q890.99274,1126.4705,904.5974,1128.0354L810.0303,1129.2739Q831.54535,1128.3575,835.7145,1117.8524Q841.0593,1109.1401,838.5726,1071.6221Q806.94586,1011.15234,795.6725,996.69183Q783.58905,979.41644,768.5018,976.41473"/>
</g>
<g style="fill:rgb(255,0,0); fill-opacity:1.0; stroke-linejoin: miter">
<path d="M682.70966,912.74054L682.6428,912.68225L680.18066,929.7701L681.59283,973.99023L658.99115,987.8076L681.59283,973.9907L658.99115,987.80725L678.7676,975.7176L658.99115,987.8069L673.3788,979.0113L658.98926,987.7562Q657.2609,955.65204,651.1453,940.7988Q646.6317,928.76483,633.4043,924.45776Q569.4463,911.57745,551.28345,923.8927L570.37067,912.1166Q551.2222,924.0064,547.04346,950.0579Q542.5477,971.03314,567.14307,1021.30316L607.2239,1081.2917L655.5276,1169.6804Q660.77405,1179.4395,660.8269,1181.0764Q665.4977,1227.8793,659.37885,1256.6577Q654.025,1283.9563,632.3782,1312.6029Q606.9448,1345.792,556.68066,1372.4763Q524.00323,1390.5101,493.52167,1393.9138Q413.30478,1402.7156,347.58255,1350.1775Q315.60135,1321.9314,307.86716,1283.9363Q299.29755,1240.553,313.75534,1204.6411Q322.7636,1180.4531,350.47528,1161.7133Q393.12982,1130.7607,436.59,1126.6653L476.33276,1125.2146L448.20212,1142.8374Q406.13336,1132.7246,354.7783,1159.084L370.06995,1149.801Q346.21884,1166.2114,336.0611,1190.9344Q322.94565,1226.5289,328.04092,1259.8098Q333.93768,1298.3513,355.67044,1322.7693Q409.03043,1379.4717,492.50824,1382.0796Q540.8722,1381.6682,580.23254,1358.1543L563.3198,1368.5012Q592.2089,1349.9127,611.2285,1325.2195Q650.4127,1279.6184,638.99475,1194.5996Q639.15784,1192.8435,632.85406,1181.3292L585.6499,1095.0797L545.33624,1035.0175Q519.6648,984.2628,525.65094,959.38336Q528.8059,943.7444,539.5386,932.62634Q541.94934,929.9552,546.95557,926.44806Q577.74066,907.4521,577.4978,908.44867Q596.5678,899.5945,651.5056,909.6399Q677.1182,910.7313,680.66724,961.55176L681.5928,973.9891L667.2052,982.78534L681.59283,973.9902L667.20514,982.7855L681.59283,973.99036L667.11365,982.8418L681.5929,973.9907L658.99115,987.8076L657.25525,943.9353L653.90845,931.0392Q668.2731,920.8904,682.70966,912.74054"/>
</g>
<g style="fill:rgb(255,0,0); fill-opacity:1.0; stroke-linejoin: miter">
<path d="M417.47437,1208.7858L416.7402,1210.5234Q399.89377,1232.0415,410.32953,1259.8333Q426.49802,1298.4424,456.79855,1320.4697Q482.81253,1340.0703,533.2638,1331.7646L514.356,1336.3Q517.65137,1335.3281,522.05914,1333.5653L527.1847,1331.1958Q534.29443,1327.407,539.07434,1323.1729Q546.72375,1317.1196,554.99884,1301.8564Q566.39417,1280.3486,571.296,1242.9888Q574.2228,1218.1436,567.4699,1192.2032Q561.58417,1168.9839,545.58093,1135.7882L527.0395,1100.1031L498.63278,1051.6145Q490.4624,1037.2048,488.86838,1033.2725Q480.46942,1014.3323,481.04062,1004.3769Q481.23364,977.06793,505.056,955.3851Q507.70978,953.29565,511.19327,952.10474L539.2436,945.36615Q545.1179,944.3286,553.5956,948.3444L556.9794,950.7407L524.66223,958.87146Q517.069,949.7199,512.5151,951.76746L537.32465,945.7734Q525.4579,950.1195,514.6283,968.5591Q506.32693,982.4593,506.51428,1000.31616Q508.0361,1015.1322,514.05817,1027.0331Q514.4031,1030.3743,549.10315,1088.988Q558.9688,1106.6262,567.437,1123.7045Q584.6847,1158.4209,591.87506,1184.911Q604.8876,1231.7408,583.03204,1288.9011Q569.3187,1321.6396,540.92664,1329.7219Q478.06866,1350.0559,440.84885,1331.8793Q422.45947,1323.2041,404.11646,1299.7456Q386.66287,1277.5286,381.28146,1253.7505Q380.2491,1248.9294,380.8035,1240.2943Q382.99323,1230.654,383.46402,1220.5662L384.94797,1216.6495L417.47437,1208.7858"/>
</g>
<g style="fill:rgb(255,0,0); fill-opacity:1.0; stroke-linejoin: miter">
<path d="M49.738388,1304.7661L75.41576,1292.4529Q215.89555,1223.6316,316.3553,1196.1335Q381.20593,1179.0819,420.9466,1174.2638Q483.5658,1165.392,547.8801,1164.4977Q611.5771,1163.624,671.898,1169.8511Q725.48425,1174.4308,799.09265,1192.0457Q880.4893,1210.1444,1034.5054,1281.1322Q909.7508,1248.722,821.9966,1241.3557Q694.0363,1229.112,527.8256,1232.6267Q382.57556,1235.2709,268.30496,1251.2633Q212.89528,1259.5588,169.182,1270.2594Q104.52579,1286.4982,49.738388,1304.7661"/>
</g>
<g style="fill:rgb(255,0,0); fill-opacity:1.0; stroke-linejoin: miter">
<path d="M421.54755,1131.6143L417.15344,1129.8485Q395.16626,1130.7166,381.5961,1135.1666Q371.95004,1138.779,370.09152,1140.1548Q362.4568,1144.4427,355.4239,1150.4589Q333.6335,1170.2225,326.76227,1184.2435Q324.82394,1188.257,324.26837,1193.0679L330.35315,1200.825Q337.06284,1189.0076,345.1474,1178.0809Q355.23074,1165.7554,361.44354,1161.6989Q373.16895,1153.1317,389.46024,1147.5239Q402.76825,1142.677,429.85944,1135.9852L421.54755,1131.6143"/>
</g>
<g style="fill:rgb(255,0,0); fill-opacity:1.0; stroke-linejoin: miter">
<path d="M643.0574,1265.2677L639.8824,1271.6865Q622.8575,1307.2065,605.531,1326.5212Q585.28503,1349.007,555.07056,1363.6715Q524.27954,1378.3634,498.35327,1381.0569Q472.30142,1384.073,435.12903,1377.0751L474.07108,1393.7897Q508.0268,1390.3081,529.793,1384.7758Q547.16565,1380.6346,569.8149,1369.0225Q606.81683,1350.2705,631.1328,1314.1201L646.8409,1290.2894L643.0574,1265.2677"/>
</g>
<g style="fill:rgb(255,0,0); fill-opacity:1.0; stroke-linejoin: miter">
<path d="M565.75415,1285.0021L564.38745,1287.6008Q555.88965,1304.6913,545.7971,1314.3593Q536.69055,1323.1609,523.20636,1328.0457Q519.8508,1329.2097,516.2528,1330.0148L512.5972,1330.7185Q506.08044,1331.8265,497.4735,1331.5496Q482.04306,1330.9023,457.5284,1325.7162Q467.2434,1333.2283,474.23193,1336.4291Q479.84793,1339.1826,487.9319,1339.9929Q497.36435,1340.9019,514.28143,1338.4532Q526.7726,1336.9861,539.63904,1332.4691Q549.2189,1328.9181,557.3728,1322.5264Q564.8659,1317.1566,571.5439,1306.906Q575.1564,1300.3313,573.6698,1295.718Q573.4055,1292.3641,565.75415,1285.0021"/>
</g>
<g style="fill:rgb(255,0,0); fill-opacity:1.0; stroke-linejoin: miter">
</g>
<g style="fill:rgb(255,0,0); fill-opacity:1.0; stroke-linejoin: miter">
<path d="M606.16846,904.29175L606.16846,904.2927Q586.7495,904.661,577.0315,906.366Q565.171,908.13617,556.1203,913.8322Q554.39594,914.5829,548.0408,920.5288Q543.22076,925.5642,539.9277,931.052Q537.0243,935.38934,534.10583,943.6799Q532.7991,947.2373,532.553,953.37305Q532.6967,958.3583,533.7137,962.6691L551.27106,948.16986Q557.9189,933.7926,564.8581,926.8884Q569.59,922.38336,575.822,920.0254Q583.9755,916.9235,594.1412,916.7708Q604.2173,916.62805,619.97437,919.16644L606.16846,904.29175"/>
</g>
<g style="fill:rgb(0,35,255); fill-opacity:1.0; stroke-linejoin: miter">
</g>
<g style="fill:rgb(255,0,0); fill-opacity:1.0; stroke-linejoin: miter">
<path d="M662.00903,924.85864L679.9147,946.3718Q683.7029,922.09814,682.6601,910.07526Q681.9782,900.5894,675.0134,892.0221Q666.6866,881.25116,645.4596,869.178Q628.4841,859.50476,608.86755,856.5249Q591.1983,854.31287,577.38226,857.7169Q561.908,861.0324,546.7069,872.18396Q532.60156,884.07825,525.4377,898.8827Q517.6894,915.9743,523.2031,924.7109Q526.6552,928.35095,530.9565,923.61646Q532.41364,921.4142,532.4056,919.7733Q531.88776,910.1286,532.40094,909.07086Q532.83276,905.6697,534.9647,901.2938Q543.3265,886.2354,556.61084,875.52155Q563.95807,869.93396,572.0884,868.1761Q588.39276,864.7164,600.9063,864.80865Q615.6318,864.821,627.2467,869.1213Q631.96497,870.4916,641.1661,875.8727Q646.25684,879.10626,650.2442,882.996Q669.6539,903.10046,662.00903,924.85864"/>
</g>
<g style="fill:rgb(255,0,0); fill-opacity:1.0; stroke-linejoin: miter">
<path d="M497.79214,962.93243L498.97125,961.5869Q507.24606,952.1822,513.08905,949.6814Q522.5683,945.34094,536.2712,943.81384L544.32477,942.7856Q561.5667,949.71204,565.71686,952.6522Q572.7008,956.76263,576.1343,962.2768Q579.3835,967.8639,580.3108,974.369Q580.9904,978.6815,581.3752,983.1106Q580.9729,993.65314,580.5969,996.6811Q579.77716,1006.5044,576.47406,1010.8386Q573.9519,1013.5025,571.2203,1012.6427Q568.35406,1011.93835,567.1176,1008.90686Q566.56903,1007.581,566.9617,1005.0741Q566.7452,1005.017,569.7713,995.11945Q570.19495,993.4886,570.4771,991.76355Q571.13074,989.2023,570.52,982.77313Q568.43933,968.86597,560.2096,963.4824Q552.983,959.89905,542.77527,959.9103Q530.88837,959.75586,523.4315,962.6869Q518.46075,964.30493,513.96075,969.74457Q510.964,972.8013,506.5256,985.71594L497.79214,962.93243"/>
</g>
</g>
</svg>